<mxfile host="app.diagrams.net" agent="Mozilla/5.0 (Windows NT 10.0; Win64; x64) AppleWebKit/537.36 (KHTML, like Gecko) Chrome/135.0.0.0 Safari/537.36" version="26.2.12">
  <diagram name="PÃ¡gina-1" id="2xxa9JTAzD8igLXy53OH">
    <mxGraphModel dx="2255" dy="864" grid="1" gridSize="10" guides="1" tooltips="1" connect="1" arrows="1" fold="1" page="1" pageScale="1" pageWidth="827" pageHeight="1169" math="0" shadow="0">
      <root>
        <mxCell id="0" />
        <mxCell id="1" parent="0" />
        <mxCell id="KJt8fLZbkE3VOffxmeUp-1" value="&lt;font style=&quot;font-size: 36px;&quot;&gt;PixelVault&lt;/font&gt;" style="text;html=1;align=center;verticalAlign=middle;resizable=0;points=[];autosize=1;strokeColor=none;fillColor=none;" vertex="1" parent="1">
          <mxGeometry x="260" y="70" width="180" height="60" as="geometry" />
        </mxCell>
        <mxCell id="KJt8fLZbkE3VOffxmeUp-2" value="" style="endArrow=none;html=1;rounded=0;" edge="1" parent="1">
          <mxGeometry width="50" height="50" relative="1" as="geometry">
            <mxPoint x="-120" y="160" as="sourcePoint" />
            <mxPoint x="870" y="160" as="targetPoint" />
            <Array as="points">
              <mxPoint x="440" y="160" />
            </Array>
          </mxGeometry>
        </mxCell>
        <mxCell id="KJt8fLZbkE3VOffxmeUp-3" value="" style="endArrow=none;html=1;rounded=0;" edge="1" parent="1">
          <mxGeometry width="50" height="50" relative="1" as="geometry">
            <mxPoint x="-120" y="200" as="sourcePoint" />
            <mxPoint x="-120" y="160" as="targetPoint" />
          </mxGeometry>
        </mxCell>
        <mxCell id="KJt8fLZbkE3VOffxmeUp-4" value="HOME" style="rounded=0;whiteSpace=wrap;html=1;" vertex="1" parent="1">
          <mxGeometry x="-180" y="200" width="120" height="60" as="geometry" />
        </mxCell>
        <mxCell id="KJt8fLZbkE3VOffxmeUp-5" value="" style="endArrow=none;html=1;rounded=0;" edge="1" parent="1">
          <mxGeometry width="50" height="50" relative="1" as="geometry">
            <mxPoint x="-120.19" y="300" as="sourcePoint" />
            <mxPoint x="-120.19" y="260" as="targetPoint" />
          </mxGeometry>
        </mxCell>
        <mxCell id="KJt8fLZbkE3VOffxmeUp-6" value="PLAY" style="rounded=0;whiteSpace=wrap;html=1;" vertex="1" parent="1">
          <mxGeometry x="-180" y="300" width="120" height="60" as="geometry" />
        </mxCell>
        <mxCell id="KJt8fLZbkE3VOffxmeUp-7" value="" style="endArrow=none;html=1;rounded=0;" edge="1" parent="1">
          <mxGeometry width="50" height="50" relative="1" as="geometry">
            <mxPoint x="-120.19" y="400" as="sourcePoint" />
            <mxPoint x="-120.19" y="360" as="targetPoint" />
          </mxGeometry>
        </mxCell>
        <mxCell id="KJt8fLZbkE3VOffxmeUp-8" value="" style="endArrow=none;html=1;rounded=0;" edge="1" parent="1">
          <mxGeometry width="50" height="50" relative="1" as="geometry">
            <mxPoint x="-120.19" y="600" as="sourcePoint" />
            <mxPoint x="-120.19" y="560" as="targetPoint" />
          </mxGeometry>
        </mxCell>
        <mxCell id="KJt8fLZbkE3VOffxmeUp-9" value="" style="endArrow=none;html=1;rounded=0;" edge="1" parent="1">
          <mxGeometry width="50" height="50" relative="1" as="geometry">
            <mxPoint x="-120.33" y="500" as="sourcePoint" />
            <mxPoint x="-120.33" y="460" as="targetPoint" />
          </mxGeometry>
        </mxCell>
        <mxCell id="KJt8fLZbkE3VOffxmeUp-10" value="XBOX" style="rounded=0;whiteSpace=wrap;html=1;" vertex="1" parent="1">
          <mxGeometry x="-180" y="400" width="120" height="60" as="geometry" />
        </mxCell>
        <mxCell id="KJt8fLZbkE3VOffxmeUp-11" value="NINTENDO" style="rounded=0;whiteSpace=wrap;html=1;" vertex="1" parent="1">
          <mxGeometry x="-180" y="500" width="120" height="60" as="geometry" />
        </mxCell>
        <mxCell id="KJt8fLZbkE3VOffxmeUp-12" value="PC" style="rounded=0;whiteSpace=wrap;html=1;" vertex="1" parent="1">
          <mxGeometry x="-180" y="600" width="120" height="60" as="geometry" />
        </mxCell>
        <mxCell id="KJt8fLZbkE3VOffxmeUp-13" value="DETAIL" style="rounded=0;whiteSpace=wrap;html=1;" vertex="1" parent="1">
          <mxGeometry x="50" y="450" width="120" height="60" as="geometry" />
        </mxCell>
        <mxCell id="KJt8fLZbkE3VOffxmeUp-14" value="CART" style="rounded=0;whiteSpace=wrap;html=1;" vertex="1" parent="1">
          <mxGeometry x="50" y="560" width="120" height="60" as="geometry" />
        </mxCell>
        <mxCell id="KJt8fLZbkE3VOffxmeUp-15" value="" style="endArrow=none;html=1;rounded=0;entryX=0;entryY=0.5;entryDx=0;entryDy=0;" edge="1" parent="1" target="KJt8fLZbkE3VOffxmeUp-13">
          <mxGeometry width="50" height="50" relative="1" as="geometry">
            <mxPoint x="-60" y="330" as="sourcePoint" />
            <mxPoint x="-10" y="280" as="targetPoint" />
          </mxGeometry>
        </mxCell>
        <mxCell id="KJt8fLZbkE3VOffxmeUp-16" value="" style="endArrow=none;html=1;rounded=0;entryX=0;entryY=0.5;entryDx=0;entryDy=0;" edge="1" parent="1" target="KJt8fLZbkE3VOffxmeUp-13">
          <mxGeometry width="50" height="50" relative="1" as="geometry">
            <mxPoint x="-60" y="430" as="sourcePoint" />
            <mxPoint x="50" y="580" as="targetPoint" />
          </mxGeometry>
        </mxCell>
        <mxCell id="KJt8fLZbkE3VOffxmeUp-17" value="" style="endArrow=none;html=1;rounded=0;exitX=1;exitY=0.5;exitDx=0;exitDy=0;" edge="1" parent="1" source="KJt8fLZbkE3VOffxmeUp-11">
          <mxGeometry width="50" height="50" relative="1" as="geometry">
            <mxPoint y="530" as="sourcePoint" />
            <mxPoint x="50" y="480" as="targetPoint" />
          </mxGeometry>
        </mxCell>
        <mxCell id="KJt8fLZbkE3VOffxmeUp-18" value="" style="endArrow=none;html=1;rounded=0;exitX=1;exitY=0.5;exitDx=0;exitDy=0;entryX=0;entryY=0.5;entryDx=0;entryDy=0;" edge="1" parent="1" target="KJt8fLZbkE3VOffxmeUp-13">
          <mxGeometry width="50" height="50" relative="1" as="geometry">
            <mxPoint x="-60" y="635" as="sourcePoint" />
            <mxPoint x="50" y="585" as="targetPoint" />
          </mxGeometry>
        </mxCell>
        <mxCell id="KJt8fLZbkE3VOffxmeUp-19" value="" style="endArrow=none;html=1;rounded=0;exitX=0.5;exitY=0;exitDx=0;exitDy=0;" edge="1" parent="1" source="KJt8fLZbkE3VOffxmeUp-14">
          <mxGeometry width="50" height="50" relative="1" as="geometry">
            <mxPoint x="60" y="560" as="sourcePoint" />
            <mxPoint x="110" y="510" as="targetPoint" />
          </mxGeometry>
        </mxCell>
        <mxCell id="KJt8fLZbkE3VOffxmeUp-20" value="" style="endArrow=none;html=1;rounded=0;" edge="1" parent="1">
          <mxGeometry width="50" height="50" relative="1" as="geometry">
            <mxPoint x="234" y="200" as="sourcePoint" />
            <mxPoint x="234" y="160" as="targetPoint" />
          </mxGeometry>
        </mxCell>
        <mxCell id="KJt8fLZbkE3VOffxmeUp-21" value="PRODUCTS" style="rounded=0;whiteSpace=wrap;html=1;" vertex="1" parent="1">
          <mxGeometry x="174" y="200" width="120" height="60" as="geometry" />
        </mxCell>
        <mxCell id="KJt8fLZbkE3VOffxmeUp-25" value="SIGN UP" style="rounded=0;whiteSpace=wrap;html=1;" vertex="1" parent="1">
          <mxGeometry x="650" y="200" width="120" height="60" as="geometry" />
        </mxCell>
        <mxCell id="KJt8fLZbkE3VOffxmeUp-30" value="ABOUT US" style="rounded=0;whiteSpace=wrap;html=1;" vertex="1" parent="1">
          <mxGeometry x="490" y="200" width="120" height="60" as="geometry" />
        </mxCell>
        <mxCell id="KJt8fLZbkE3VOffxmeUp-31" value="" style="endArrow=none;html=1;rounded=0;" edge="1" parent="1">
          <mxGeometry width="50" height="50" relative="1" as="geometry">
            <mxPoint x="550" y="200" as="sourcePoint" />
            <mxPoint x="550" y="160" as="targetPoint" />
          </mxGeometry>
        </mxCell>
        <mxCell id="KJt8fLZbkE3VOffxmeUp-34" value="" style="endArrow=none;html=1;rounded=0;" edge="1" parent="1">
          <mxGeometry width="50" height="50" relative="1" as="geometry">
            <mxPoint x="709.8100000000001" y="200" as="sourcePoint" />
            <mxPoint x="709.8100000000001" y="160" as="targetPoint" />
          </mxGeometry>
        </mxCell>
        <mxCell id="KJt8fLZbkE3VOffxmeUp-35" value="" style="endArrow=none;html=1;rounded=0;" edge="1" parent="1">
          <mxGeometry width="50" height="50" relative="1" as="geometry">
            <mxPoint x="390" y="200" as="sourcePoint" />
            <mxPoint x="390" y="160" as="targetPoint" />
          </mxGeometry>
        </mxCell>
        <mxCell id="KJt8fLZbkE3VOffxmeUp-36" value="CART" style="rounded=0;whiteSpace=wrap;html=1;" vertex="1" parent="1">
          <mxGeometry x="330" y="200" width="120" height="60" as="geometry" />
        </mxCell>
        <mxCell id="KJt8fLZbkE3VOffxmeUp-39" value="ADMIN" style="rounded=0;whiteSpace=wrap;html=1;" vertex="1" parent="1">
          <mxGeometry x="810" y="200" width="120" height="60" as="geometry" />
        </mxCell>
        <mxCell id="KJt8fLZbkE3VOffxmeUp-40" value="" style="endArrow=none;html=1;rounded=0;" edge="1" parent="1">
          <mxGeometry width="50" height="50" relative="1" as="geometry">
            <mxPoint x="869.8100000000001" y="200" as="sourcePoint" />
            <mxPoint x="869.8100000000001" y="160" as="targetPoint" />
          </mxGeometry>
        </mxCell>
        <mxCell id="KJt8fLZbkE3VOffxmeUp-41" value="USERS" style="rounded=0;whiteSpace=wrap;html=1;" vertex="1" parent="1">
          <mxGeometry x="810" y="300" width="120" height="60" as="geometry" />
        </mxCell>
        <mxCell id="KJt8fLZbkE3VOffxmeUp-42" value="" style="endArrow=none;html=1;rounded=0;" edge="1" parent="1">
          <mxGeometry width="50" height="50" relative="1" as="geometry">
            <mxPoint x="869.8100000000001" y="300" as="sourcePoint" />
            <mxPoint x="869.8100000000001" y="260" as="targetPoint" />
          </mxGeometry>
        </mxCell>
        <mxCell id="KJt8fLZbkE3VOffxmeUp-43" value="PRODUCTS" style="rounded=0;whiteSpace=wrap;html=1;" vertex="1" parent="1">
          <mxGeometry x="810" y="380" width="120" height="60" as="geometry" />
        </mxCell>
        <mxCell id="KJt8fLZbkE3VOffxmeUp-44" value="" style="endArrow=none;html=1;rounded=0;" edge="1" parent="1">
          <mxGeometry width="50" height="50" relative="1" as="geometry">
            <mxPoint x="869.8100000000001" y="380" as="sourcePoint" />
            <mxPoint x="870" y="360" as="targetPoint" />
          </mxGeometry>
        </mxCell>
        <mxCell id="KJt8fLZbkE3VOffxmeUp-45" value="BRANDS" style="rounded=0;whiteSpace=wrap;html=1;" vertex="1" parent="1">
          <mxGeometry x="810" y="480" width="120" height="60" as="geometry" />
        </mxCell>
        <mxCell id="KJt8fLZbkE3VOffxmeUp-46" value="" style="endArrow=none;html=1;rounded=0;" edge="1" parent="1">
          <mxGeometry width="50" height="50" relative="1" as="geometry">
            <mxPoint x="869.8100000000001" y="480" as="sourcePoint" />
            <mxPoint x="869.8100000000001" y="440" as="targetPoint" />
          </mxGeometry>
        </mxCell>
        <mxCell id="KJt8fLZbkE3VOffxmeUp-47" value="CREATE" style="rounded=0;whiteSpace=wrap;html=1;" vertex="1" parent="1">
          <mxGeometry x="620" y="300" width="120" height="60" as="geometry" />
        </mxCell>
        <mxCell id="KJt8fLZbkE3VOffxmeUp-48" value="EDIT" style="rounded=0;whiteSpace=wrap;html=1;" vertex="1" parent="1">
          <mxGeometry x="620" y="380" width="120" height="60" as="geometry" />
        </mxCell>
        <mxCell id="KJt8fLZbkE3VOffxmeUp-49" value="" style="endArrow=none;html=1;rounded=0;" edge="1" parent="1">
          <mxGeometry width="50" height="50" relative="1" as="geometry">
            <mxPoint x="740" y="330" as="sourcePoint" />
            <mxPoint x="770" y="330" as="targetPoint" />
          </mxGeometry>
        </mxCell>
        <mxCell id="KJt8fLZbkE3VOffxmeUp-50" value="" style="endArrow=none;html=1;rounded=0;" edge="1" parent="1">
          <mxGeometry width="50" height="50" relative="1" as="geometry">
            <mxPoint x="740" y="409.76" as="sourcePoint" />
            <mxPoint x="770" y="409.76" as="targetPoint" />
          </mxGeometry>
        </mxCell>
        <mxCell id="KJt8fLZbkE3VOffxmeUp-51" value="" style="endArrow=none;html=1;rounded=0;" edge="1" parent="1">
          <mxGeometry width="50" height="50" relative="1" as="geometry">
            <mxPoint x="770" y="420" as="sourcePoint" />
            <mxPoint x="770" y="320" as="targetPoint" />
          </mxGeometry>
        </mxCell>
        <mxCell id="KJt8fLZbkE3VOffxmeUp-52" value="" style="endArrow=none;html=1;rounded=0;entryX=0;entryY=0.333;entryDx=0;entryDy=0;entryPerimeter=0;" edge="1" parent="1" target="KJt8fLZbkE3VOffxmeUp-41">
          <mxGeometry width="50" height="50" relative="1" as="geometry">
            <mxPoint x="770" y="320" as="sourcePoint" />
            <mxPoint x="809" y="320" as="targetPoint" />
          </mxGeometry>
        </mxCell>
        <mxCell id="KJt8fLZbkE3VOffxmeUp-53" value="" style="endArrow=none;html=1;rounded=0;entryX=0;entryY=0.333;entryDx=0;entryDy=0;entryPerimeter=0;" edge="1" parent="1">
          <mxGeometry width="50" height="50" relative="1" as="geometry">
            <mxPoint x="770" y="420" as="sourcePoint" />
            <mxPoint x="810" y="420" as="targetPoint" />
          </mxGeometry>
        </mxCell>
      </root>
    </mxGraphModel>
  </diagram>
</mxfile>
